<?xml version="1.0" encoding="utf-8"?>
<!-- Generator: Adobe Illustrator 23.0.1, SVG Export Plug-In . SVG Version: 6.00 Build 0)  -->
<svg version="1.1" id="Layer_1" xmlns="http://www.w3.org/2000/svg" xmlns:xlink="http://www.w3.org/1999/xlink" x="0px" y="0px"
	 viewBox="0 0 32 32" style="enable-background:new 0 0 32 32;" xml:space="preserve">
<style type="text/css">
	.st0{fill:#FFFFFF;}
</style>
<path id="facebook" class="st0" d="M28,5.3v21.4c0,0.7-0.6,1.3-1.3,1.3h-6.1v-9.3h3.1l0.5-3.6h-3.6v-2.3c0-1,0.3-1.8,1.8-1.8l1.9,0
	V7.8c-0.9-0.1-1.9-0.1-2.8-0.1c-2.8,0-4.7,1.7-4.7,4.8v2.7h-3.1v3.6h3.1V28H5.3C4.6,28,4,27.4,4,26.7c0,0,0,0,0,0V5.3
	C4,4.6,4.6,4,5.3,4c0,0,0,0,0,0h21.4C27.4,4,28,4.6,28,5.3C28,5.3,28,5.3,28,5.3z"/>
</svg>
