<?xml version="1.0" encoding="utf-8"?>
<!-- Generator: Adobe Illustrator 23.0.1, SVG Export Plug-In . SVG Version: 6.00 Build 0)  -->
<svg version="1.1" id="Layer_1" xmlns="http://www.w3.org/2000/svg" xmlns:xlink="http://www.w3.org/1999/xlink" x="0px" y="0px"
	 viewBox="0 0 32 32" style="enable-background:new 0 0 32 32;" xml:space="preserve">
<style type="text/css">
	.st0{fill:#FFFFFF;}
</style>
<path id="whatsapp" class="st0" d="M24.7,7.5C20.1,2.9,12.6,2.9,8,7.5c-3.8,3.8-4.6,9.6-1.9,14.3l-1.7,6.1l6.3-1.6
	c1.7,0.9,3.7,1.4,5.7,1.4h0c6.5,0,11.8-5.3,11.8-11.8C28.2,12.8,26.9,9.7,24.7,7.5z M16.3,25.7L16.3,25.7c-1.8,0-3.5-0.5-5-1.4
	L11,24.2l-3.7,1l1-3.6L8,21.1c-2.9-4.6-1.5-10.7,3.1-13.6s10.7-1.5,13.6,3.1s1.5,10.7-3.1,13.6C20,25.2,18.2,25.7,16.3,25.7
	L16.3,25.7z M21.7,18.4c-0.3-0.1-1.8-0.9-2-1s-0.5-0.1-0.7,0.1s-0.8,1-0.9,1.2c-0.2,0.2-0.3,0.2-0.6,0.1c-0.9-0.3-1.7-0.8-2.4-1.5
	c-0.6-0.6-1.2-1.3-1.6-2c-0.2-0.3,0-0.5,0.1-0.6c0.1-0.1,0.3-0.3,0.4-0.5c0.1-0.1,0.2-0.3,0.3-0.5c0.1-0.2,0.1-0.4,0-0.5
	c-0.1-0.1-0.7-1.6-0.9-2.2c-0.2-0.6-0.5-0.5-0.7-0.5c-0.2,0-0.4,0-0.6,0c-0.3,0-0.6,0.1-0.8,0.4c-0.7,0.6-1.1,1.5-1,2.5
	c0.1,1.1,0.5,2.2,1.2,3.1c1.3,1.9,3,3.4,5.1,4.5c0.6,0.2,1.1,0.4,1.7,0.6c0.6,0.2,1.2,0.2,1.9,0.1c0.8-0.2,1.6-0.7,2-1.4
	c0.2-0.4,0.3-0.9,0.2-1.4C22.2,18.6,22,18.5,21.7,18.4z"/>
</svg>
