<?xml version="1.0" encoding="utf-8"?>
<!-- Generator: Adobe Illustrator 23.0.1, SVG Export Plug-In . SVG Version: 6.00 Build 0)  -->
<svg version="1.1" id="Layer_1" xmlns="http://www.w3.org/2000/svg" xmlns:xlink="http://www.w3.org/1999/xlink" x="0px" y="0px"
	 viewBox="0 0 32 32" style="enable-background:new 0 0 32 32;" xml:space="preserve">
<style type="text/css">
	.st0{fill:#FFFFFF;}
</style>
<path id="youtube" class="st0" d="M28.2,9.8c-0.3-1.1-1.2-2-2.3-2.3C24,7,16,7,16,7S8,7,6,7.5c-1.1,0.3-2,1.2-2.3,2.3
	c-0.4,2-0.5,4.1-0.5,6.2c0,2.1,0.2,4.1,0.5,6.2c0.3,1.1,1.2,2,2.3,2.3C8,25,16,25,16,25s8,0,10-0.5c1.1-0.3,2-1.2,2.3-2.3
	c0.4-2,0.5-4.1,0.5-6.2C28.8,13.9,28.6,11.9,28.2,9.8z M13.4,19.8v-7.6l6.7,3.8L13.4,19.8z"/>
</svg>
